<?xml version="1.0" encoding="utf-8"?>
<svg viewBox="346.147 84.46 38.741 75.907" width="38.741" height="75.907" xmlns="http://www.w3.org/2000/svg">
  <path d="M 363.111 115.294 C 364.069 115.213 365.04 115.024 365.997 115.051 C 369.625 115.159 373.238 115.334 376.866 115.469 C 377.054 115.482 377.243 115.307 377.419 115.226 L 377.405 115.213 C 379.59 115.307 381.788 115.469 383.972 115.469 C 389.042 115.482 394.113 115.604 399.156 116.683 C 399.938 116.844 401.286 116.898 401.192 119.946 C 401.098 123.115 400.154 124.949 398.778 124.8 C 395.448 124.436 392.103 123.641 388.773 124.113 C 383.891 124.814 379.05 124.274 374.196 124.342 C 369.84 124.396 365.485 124.14 361.116 124.22 C 357.016 124.301 352.917 124.895 348.818 124.787 C 345.285 124.679 341.779 123.816 338.246 123.465 C 337.41 123.384 336.533 123.196 335.724 124.342 L 335.738 124.382 C 334.807 122.98 333.634 125.542 332.744 123.465 C 332.42 123.398 332.097 123.196 331.773 123.304 C 330.317 123.789 329.953 122.683 330.505 119.204 C 330.627 118.436 330.532 117.438 330.883 116.912 L 330.91 116.966 L 330.897 116.912 C 331.935 114.565 333.121 115.725 334.214 115.712 C 339.608 115.59 345.015 115.671 350.409 115.685 C 353.726 115.685 357.03 115.9 360.347 115.55 C 361.25 115.455 362.167 115.024 363.084 115.307 L 363.111 115.294 Z" transform="matrix(0, 1, -1, 0, 485.656799, -245.799988)" style=""/>
  <path d="M 380.138 138.732 C 381.19 139.649 381.999 140.62 382.309 141.915 L 382.444 142.697 C 382.579 143.951 382.35 145.191 381.878 146.216 C 381.406 147.254 380.691 148.185 379.666 149.075 C 378.642 149.978 377.239 150.693 375.972 151.462 L 373.437 152.945 C 373.302 153.026 373.248 153.255 373.153 153.417 L 373.18 153.43 C 371.495 154.401 369.769 155.305 368.124 156.343 C 364.321 158.743 360.464 161.063 356.122 162.546 C 355.448 162.775 354.41 163.382 352.859 160.753 C 351.241 158.015 350.971 156.02 352.077 155.494 C 354.76 154.213 357.686 153.309 359.925 151.313 C 361.557 149.857 363.35 148.657 365.197 147.538 L 367.962 145.879 L 369.337 145.043 L 370.025 144.612 L 370.2 144.504 C 370.254 144.463 370.227 144.477 370.254 144.463 L 370.308 144.409 C 370.47 144.261 370.632 144.14 370.807 144.032 C 370.969 143.924 371.158 143.748 371.104 143.519 C 371.009 143.236 370.659 143.155 370.402 143.061 C 370.322 143.034 370.241 143.02 370.16 143.02 C 370.119 143.02 370.092 143.02 370.025 143.007 L 369.405 142.724 L 366.896 141.618 C 365.224 140.89 363.566 140.135 362.002 139.218 C 359.291 137.64 356.958 135.401 354.383 133.608 C 353.776 133.19 353.169 132.651 351.996 133.311 L 351.982 133.352 C 351.928 131.72 349.785 133.487 350.081 131.289 C 349.865 131.1 349.704 130.776 349.407 130.736 C 348.031 130.547 348.288 129.428 350.378 126.609 C 350.836 125.989 351.241 125.059 351.767 124.762 C 353.695 123.144 354.073 124.654 354.936 125.099 C 359.21 127.257 363.377 129.603 367.598 131.882 L 371.441 134.026 C 372.088 134.377 372.735 134.727 373.396 135.037 L 376.309 136.453 C 377.657 137.074 379.505 137.613 380.138 138.719 L 380.138 138.732 Z" transform="matrix(0, 1, -1, 0, 508.919037, -222.115143)" style=""/>
</svg>