<svg width="10000" height="10000" viewBox="0 0 10000 10000" fill="none" xmlns="http://www.w3.org/2000/svg">
<g clip-path="url(#clip0_599_2350)">
<path d="M5671 2326C6017.5 1741.5 6622 1208 7626 1208" stroke="white" stroke-width="230" stroke-linecap="round" stroke-linejoin="round"/>
<path d="M4137 357.963C4245.95 343.662 4493.02 351.092 4609.73 495.22" stroke="white" stroke-width="230" stroke-linecap="round" stroke-linejoin="round"/>
<path d="M5073.18 972.069C5144.71 1478.95 5154.42 2488.83 5318.5 2707.5C5569.5 3042 5829.38 2699.76 6489 2230C7130 1773.5 7333.5 1760 8129 1622.5" stroke="white" stroke-width="230" stroke-linecap="round" stroke-linejoin="round"/>
<path d="M3179.98 2757.06C3026.76 2486.46 2780.47 1772.81 3021.05 1082.96C3321.77 220.642 3958.2 -438.349 4687.65 -32.0575C5273.16 294.055 5400.37 1013.3 5432.2 1090.97" stroke="white" stroke-width="230" stroke-linecap="round" stroke-linejoin="round"/>
<path d="M3179.98 12757.1C3026.76 12486.5 2780.47 11772.8 3021.05 11083C3321.77 10220.6 3958.2 9561.65 4687.65 9967.94C5273.16 10294 5400.37 11013.3 5432.2 11091" stroke="white" stroke-width="230" stroke-linecap="round" stroke-linejoin="round"/>
<path d="M4170.56 1980.44C4310.5 2785.5 4502.11 4529.37 3201.11 5695.24C1900.11 6861.11 1788.27 7694.39 1894.98 7965.3" stroke="white" stroke-width="230" stroke-linecap="round" stroke-linejoin="round"/>
<path d="M1684.79 6600.54C1589.69 6285.72 1744.44 5951.52 2100.26 5837.02" stroke="white" stroke-width="230" stroke-linecap="round" stroke-linejoin="round"/>
<path d="M2545.38 5660.83C2911.81 5312.15 3655.79 4414.89 3700.31 3615.24C3755.95 2615.67 3300.2 799.752 4094.69 799.752C4764 799.752 4714.55 2927.52 4903.5 3309C5133.53 3773.43 5476.43 3676.79 6151.5 3111C7016.97 2385.63 7348 2274 8025.57 2134.93" stroke="white" stroke-width="230" stroke-linecap="round" stroke-linejoin="round"/>
<path d="M4644 3886.5C4772.35 4126.02 5291.97 4456.89 5733.94 4118.34C6286.4 3695.16 7148.5 2447.08 8955.56 2894.89" stroke="white" stroke-width="230" stroke-linecap="round" stroke-linejoin="round"/>
<path d="M5056 9475.5C5056 8961.5 5318.73 8554.5 5432.17 8416.83C6298.83 7365.06 8194 7219 9094.5 8947" stroke="white" stroke-width="230" stroke-linecap="round" stroke-linejoin="round"/>
<path d="M8312 5809.5C8681.5 6172.5 9174.5 6987 8366.5 7288C7571.38 7584.2 7088.41 6199.01 5669.01 7611.99" stroke="white" stroke-width="230" stroke-linecap="round" stroke-linejoin="round"/>
<path d="M8293.12 -4141.09C8589.7 -3857.97 9489 -2720.4 8560.02 -2615.3C7716.9 -2519.92 7088.41 -3801 5669.01 -2388.01M5056 -524.503C5056 -1038.5 5318.72 -1445.5 5432.17 -1583.17C6298.83 -2634.94 8420.98 -2687.76 9268.94 -678.616" stroke="white" stroke-width="230" stroke-linecap="round" stroke-linejoin="round"/>
<path d="M6185 11082C5711.5 10796 5615.13 10410.7 5522.96 9860.12C5407.74 9171.94 6229.94 7310.33 8176.97 8716.74C8363.19 8870.49 8526.68 9018.12 8862.42 9708.61" stroke="white" stroke-width="230" stroke-linecap="round" stroke-linejoin="round"/>
<path d="M7510.39 10777.1C7178.78 10888.7 6485.55 10839 6218.67 10291.9C5885.07 9608.06 6332.14 8823.2 7251.93 8915.5C7987.76 8989.34 8181.98 9435.18 8425.09 10010.4C8676.05 10604.2 9734.7 11182.4 10770.1 10010.4" stroke="white" stroke-width="230" stroke-linecap="round" stroke-linejoin="round"/>
<path d="M7510.39 777.093C7178.78 888.681 6485.55 838.992 6218.67 291.914C5885.07 -391.934 6332.14 -1176.8 7251.93 -1084.5C7987.76 -1010.66 8006.85 -453.335 8425.09 10.3823C8735 353.999 8931 727.999 9710 617.499" stroke="white" stroke-width="230" stroke-linecap="round" stroke-linejoin="round"/>
<path d="M2032 8574.18C1972.3 8756.73 1945.62 9277.87 2316.42 9902.04" stroke="white" stroke-width="230" stroke-linecap="round" stroke-linejoin="round"/>
<path d="M10548.2 -3661.58C10881.6 -3748.88 13417.2 -2878.91 9675.12 -189.34" stroke="white" stroke-width="230" stroke-linecap="round" stroke-linejoin="round"/>
<path d="M8314.61 4922.15C9087.21 5241.3 9773.14 4297.83 10178.6 3786.41C10584.1 3274.99 11532 1827.41 12603.6 3323.88" stroke="white" stroke-width="230" stroke-linecap="round" stroke-linejoin="round"/>
<path d="M-1685.39 4922.15C-912.791 5241.3 -226.865 4297.83 178.616 3786.41C584.097 3274.99 1531.96 1827.41 2603.59 3323.88" stroke="white" stroke-width="230" stroke-linecap="round" stroke-linejoin="round"/>
<path d="M10361.7 2394.53C10227 2669.87 10327.5 3237.84 10945.6 3493.16C11718.2 3812.31 12404.1 2868.84 12809.6 2357.42C13215.1 1846 14162.9 398.419 15234.6 1894.89" stroke="white" stroke-width="230" stroke-linecap="round" stroke-linejoin="round"/>
<path d="M8944.5 5424.5C9931 5079 10477.9 4483.64 10636.6 4029.47C10837.6 3454.08 11300.1 3091.72 11656.2 3193.78C12426.9 3414.65 12491.6 4503.68 11624.1 4892.71C10756.7 5281.73 10807 4709 9129.5 6349.5" stroke="white" stroke-width="230" stroke-linecap="round" stroke-linejoin="round"/>
<path d="M-1055.5 5424.5C-69.0025 5079 477.943 4483.64 636.596 4029.47C837.588 3454.08 1315.86 3169.44 1672 3271.5C2442.69 3492.36 2491.6 4503.69 1624.13 4892.71C756.654 5281.73 806.997 4709 -870.504 6349.5" stroke="white" stroke-width="230" stroke-linecap="round" stroke-linejoin="round"/>
<path d="M10168.7 4569.33C12834 3963.97 13108.9 3054.65 13267.6 2600.47C13468.6 2025.09 13931.1 1662.73 14287.2 1764.79C15057.9 1985.66 15122.6 3074.69 14255.1 3463.72C13387.7 3852.74 11212.6 4435.42 11220.9 6908.86" stroke="white" stroke-width="230" stroke-linecap="round" stroke-linejoin="round"/>
<path d="M13152.4 3494.85C13225.7 3870.53 13053.6 4783.76 11779.2 5431.19C10186.2 6240.49 9113.5 6769.5 9113.5 7578.5" stroke="white" stroke-width="230" stroke-linecap="round" stroke-linejoin="round"/>
<path d="M3152.41 3494.85C3225.68 3870.53 3053.61 4783.76 1779.19 5431.19C186.166 6240.49 -886.498 6769.5 -886.498 7578.5" stroke="white" stroke-width="230" stroke-linecap="round" stroke-linejoin="round"/>
<path d="M1173.5 3904.5C1259 3729.5 1540 3688.28 1640.5 3864C1766.12 4083.65 1796.5 4526 931.5 4603.5" stroke="white" stroke-width="230" stroke-linecap="round" stroke-linejoin="round"/>
<path d="M6656.69 9759.98C6721.84 9434.26 7111.28 9381.72 7297.85 9396.17C7890.31 9472.92 7912.97 9941.8 7608.13 10201.1C7303.28 10460.3 6575.25 10167.1 6656.69 9759.98Z" stroke="white" stroke-width="230" stroke-linecap="round" stroke-linejoin="round"/>
<path d="M6656.69 -240.021C6721.84 -565.74 7111.28 -618.281 7297.85 -603.837C7890.31 -527.082 7912.97 -58.2006 7608.13 201.061C7303.28 460.322 6575.25 167.128 6656.69 -240.021Z" stroke="white" stroke-width="230" stroke-linecap="round" stroke-linejoin="round"/>
<path d="M3484.13 7952.11C3718.46 7898.68 4288.95 7627.93 4696.3 6972.33C5103.64 6316.72 5576.97 6199.34 5762.71 6222.6" stroke="white" stroke-width="230" stroke-linecap="round" stroke-linejoin="round"/>
<path d="M3261.26 8673.7C3596.86 8673.16 4418.29 8476.48 5019.27 7694.11C5770.49 6716.13 6347.5 5981 7839.5 6603.5" stroke="white" stroke-width="230" stroke-linecap="round" stroke-linejoin="round"/>
<path d="M2359.89 7880.82C2625.59 7091.52 3138.29 5814.53 4485.52 5375.16C5832.76 4935.79 7127.76 5640.92 7606.86 6048.41" stroke="white" stroke-width="230" stroke-linecap="round" stroke-linejoin="round"/>
<path d="M4790.5 6060C4828.1 5979.53 5086.44 5787.48 5274.69 5753.27" stroke="white" stroke-width="230" stroke-linecap="round" stroke-linejoin="round"/>
<path d="M5568.08 204.545C5664.04 231.828 6167.08 686.009 5918.81 1172.57" stroke="white" stroke-width="230" stroke-linecap="round" stroke-linejoin="round"/>
<path d="M1210.93 849.803C1059.61 1044.07 894.946 1325.21 341.002 1400.29" stroke="white" stroke-width="230" stroke-linecap="round" stroke-linejoin="round"/>
<path d="M3638.22 7177.16C3841.08 7089.06 4086 7034 4502.5 6360" stroke="white" stroke-width="230" stroke-linecap="round" stroke-linejoin="round"/>
<path d="M4319.59 4925.1C4610.24 4758.32 5425.85 4520.05 6363.14 4901.22C7300.43 5282.39 7693.46 4842.68 7791.96 4526.5C7723.79 4895.19 7704.09 5592.11 8170.68 5430.25" stroke="white" stroke-width="230" stroke-linecap="round" stroke-linejoin="round"/>
<path d="M6158.5 4358.7C6529.5 4249.5 6747.5 3566.5 7083 3566.5C7462.92 3566.5 6720.52 4409.49 7083 4461.5C7536 4526.5 7977.43 3002.5 8307.5 3407.5C8511.07 3657.28 7954.5 4211 8378.56 4402.87C8653.7 4527.37 9250.5 4132.5 9460 3530" stroke="white" stroke-width="230" stroke-linecap="round" stroke-linejoin="round"/>
<path d="M7977.5 281.499C7756 1159 8666 921 8666 1864" stroke="white" stroke-width="230" stroke-linecap="round" stroke-linejoin="round"/>
<path d="M8469 683.5C8592 880 8794.07 1106.26 9256.5 1077" stroke="white" stroke-width="230" stroke-linecap="round" stroke-linejoin="round"/>
<path d="M4156.5 6109C3765.87 6416.62 3510.24 6589.97 3038.5 7475.5C2609.43 8280.93 2620.93 9154.19 3108 9290.5C3595.07 9426.8 3717.9 9183.5 3934 9081C4150.1 8978.5 4492.06 8940.14 4620 9360.5" stroke="white" stroke-width="230" stroke-linecap="round" stroke-linejoin="round"/>
<path d="M956.856 -1733.4C1095.52 -2209.08 1799.45 -2477.96 2271.11 -1882.09C3417.93 -433.27 1536.17 1711.59 2619 2704" stroke="white" stroke-width="230" stroke-linecap="round" stroke-linejoin="round"/>
<path d="M-951.782 11526.2C-335.999 12014.5 652.501 12138.5 1346.5 11526.2C2006.42 10944 1747.39 10126 1567 9286C1447.82 8731 1509.82 7817.43 1475.55 7430.49C1405.5 6639.5 873.505 6491.99 544.505 6746.99C215.504 7001.99 -299.494 7492.99 -595.994 9229.99C-663.161 9658.66 -765.233 10205.6 -457.494 10300.5C-150.994 10395 387 10260 489.5 9341" stroke="white" stroke-width="230" stroke-linecap="round" stroke-linejoin="round"/>
<path d="M-951.782 1526.2C-335.999 2014.49 652.501 2138.49 1346.5 1526.2C2006.42 943.963 1747.39 126.029 1567 -714.004C1447.82 -1269 1509.82 -2182.57 1475.55 -2569.51C1405.5 -3360.5 873.505 -3508.01 544.505 -3253.01C215.504 -2998.01 -299.494 -2507.01 -595.994 -770.008C-663.161 -341.342 -765.233 205.608 -457.494 300.49C-150.994 394.99 387 259.997 489.5 -659.003" stroke="white" stroke-width="230" stroke-linecap="round" stroke-linejoin="round"/>
<path d="M-349.997 10961C1197.5 11129.5 952.009 9740.5 952.009 9361C952.009 8981.5 972.004 8102 1018.5 7701C1065 7300 662.996 7052 345.496 7835C27.9958 8618 45.5072 9388.5 -138.993 9665.5" stroke="white" stroke-width="230" stroke-linecap="round" stroke-linejoin="round"/>
<path d="M-349.997 960.996C1197.5 1129.5 952.009 -259.505 952.009 -639.005C952.009 -1018.5 972.004 -1898 1018.5 -2299C1065 -2700 662.996 -2948 345.496 -2165C27.9958 -1382 45.5072 -611.506 -138.993 -334.506" stroke="white" stroke-width="230" stroke-linecap="round" stroke-linejoin="round"/>
<path d="M9048.21 11526.2C9664 12014.5 10504.5 12478.5 11416 11736.5C11931.1 11317.2 11674.3 11212.3 11475.6 9393C11380.7 8525 11475.6 7818.95 11475.6 7430.5C11475.6 6729.5 10873.5 6492 10544.5 6747C10215.5 7002 9700.5 7493 9404 9230C9336.84 9658.67 9234.76 10205.6 9542.5 10300.5C9849 10395 10245 10312 10347.5 9393" stroke="white" stroke-width="230" stroke-linecap="round" stroke-linejoin="round"/>
<path d="M9650 10961C11465.5 11872.5 10863 10073 10952 9361C11041 8649 11073.5 8158.5 11120 7757.5C11166.5 7356.5 10859.5 7196.75 10489 7550.5C10118.5 7904.25 10045.5 9388.5 9861.01 9665.5" stroke="white" stroke-width="230" stroke-linecap="round" stroke-linejoin="round"/>
<path d="M9048.21 1526.2C9664 2014.5 10504.5 2478.5 11416 1736.5C11931.1 1317.22 11674.3 1212.28 11475.6 -607.002C11380.7 -1475 11475.6 -2181.05 11475.6 -2569.5C11475.6 -3270.5 10873.5 -3508 10544.5 -3253C10215.5 -2998 9700.5 -2507 9404 -770C9336.84 -341.334 9234.76 205.616 9542.5 300.498C9849 394.998 10245 311.998 10347.5 -607.002" stroke="white" stroke-width="230" stroke-linecap="round" stroke-linejoin="round"/>
<path d="M9650 960.999C11465.5 1872.5 10863 72.9987 10952 -639.001C11041 -1351 11073.5 -1841.5 11120 -2242.5C11166.5 -2643.5 10859.5 -2803.25 10489 -2449.5C10118.5 -2095.75 10045.5 -611.502 9861 -334.502" stroke="white" stroke-width="230" stroke-linecap="round" stroke-linejoin="round"/>
<path d="M-16.5001 3222.5C-315.153 3165.37 -697.998 2933.72 -697.997 2521.5C-697.996 2242.72 -257.055 2484.27 204.502 2521.5C799.503 2569.5 1525 2290 1842.5 1774" stroke="white" stroke-width="230" stroke-linecap="round" stroke-linejoin="round"/>
<path d="M9983.5 3222.5C9684.85 3165.37 9302 2933.72 9302 2521.5C9302 2242.72 9742.95 2484.27 10204.5 2521.5C10799.5 2569.5 11842.5 2166.5 11842.5 1774" stroke="white" stroke-width="230" stroke-linecap="round" stroke-linejoin="round"/>
<circle cx="6225.5" cy="5925.5" r="134.5" fill="white"/>
<circle cx="8305.5" cy="6774.5" r="134.5" fill="white"/>
<circle cx="9088.5" cy="8021.5" r="134.5" fill="white"/>
<circle cx="4733.5" cy="8574.5" r="134.5" fill="white"/>
<circle cx="7236.5" cy="9913.5" r="134.5" fill="white"/>
<circle cx="7236.5" cy="-86.5" r="134.5" fill="white"/>
<circle cx="2823.5" cy="9716.5" r="134.5" fill="white"/>
<circle cx="4086.5" cy="1474.5" r="134.5" fill="white"/>
<circle cx="497.5" cy="8708.5" r="134.5" fill="white"/>
<circle cx="2602.5" cy="3804.5" r="134.5" fill="white"/>
<circle cx="1125.5" cy="6225.5" r="134.5" fill="white"/>
<circle cx="4464.5" cy="4393.5" r="134.5" fill="white"/>
<circle cx="8648.5" cy="2231.5" r="134.5" fill="white"/>
<circle cx="8854.5" cy="3550.5" r="134.5" fill="white"/>
<circle cx="5677.5" cy="1546.5" r="134.5" fill="white"/>
</g>
<defs>
<clipPath id="clip0_599_2350">
<rect width="10000" height="10000" rx="400" fill="white"/>
</clipPath>
</defs>
</svg>
