<?xml version="1.0" encoding="UTF-8" standalone="no"?>
<!-- Created with Inkscape (http://www.inkscape.org/) -->

<svg
        width="42.96479mm"
        height="40.548599mm"
        viewBox="0 0 42.96479 40.548599"
        version="1.1"
        id="svg5"
        xml:space="preserve"
        xmlns:xlink="http://www.w3.org/1999/xlink"
        xmlns="http://www.w3.org/2000/svg"
        xmlns:svg="http://www.w3.org/2000/svg"><defs
     id="defs2"><style
       id="style132">.a{fill:none;}.b{fill:url(#a);}.c{fill:url(#b);}.d{isolation:isolate;}.e{fill:#160c0c;}.f{clip-path:url(#c);}.g{fill:url(#d);}.h{fill:url(#e);}.i{fill:url(#f);}.j{fill:url(#g);}.k{fill:url(#h);}.l{clip-path:url(#j);}.m{fill:url(#k);}.n{fill:url(#l);}.o{fill:url(#m);}.p{fill:url(#n);}.q,.r,.s{opacity:0.05;}.q{fill:url(#o);}.r{fill:url(#p);}.s{fill:url(#q);}.t{fill:url(#r);}</style><linearGradient
        id="a"
        x1="122.56"
        y1="119.33"
        x2="23.68"
        y2="91.330002"
        gradientUnits="userSpaceOnUse"><stop
         offset="0"
         stop-color="#dbf9ea"
         id="stop134" />
    <stop
            offset="1"
            stop-color="#c0dde2"
            id="stop136"/></linearGradient><linearGradient
        id="b"
        x1="29.110001"
        y1="78.970001"
        x2="168.36"
        y2="66.220001"
        gradientTransform="matrix(1,0,0,-1,0,188.14)"
        gradientUnits="userSpaceOnUse"><stop
         offset="0"
         stop-color="#292376"
         id="stop139" />
    <stop
            offset="1"
            stop-color="#5d278f"
            stop-opacity="0"
            id="stop141"/></linearGradient><clipPath
        id="c"><path
         class="a"
         d="m 157.2,43.34 c 2.05,1.18 3,4.27 2.09,6.9 l -21.52,63.45 c -0.89,2.63 -3.27,3.81 -5.32,2.63 L 58.28,73.49 c -2.05,-1.18 -3,-4.27 -2.09,-6.91 L 77.71,3.14 C 78.6,0.51 81,-0.66 83,0.52 Z"
         id="path144" /></clipPath><linearGradient
        id="d"
        x1="61.18"
        y1="31.540001"
        x2="154.3"
        y2="85.300003"
        gradientUnits="userSpaceOnUse"><stop
         offset="0"
         stop-color="#5d278f"
         id="stop147" />
    <stop
            offset="1"
            stop-color="#292376"
            id="stop149"/></linearGradient><linearGradient
        id="e"
        x1="162.77"
        y1="54.59"
        x2="67.519997"
        y2="61.34"
        xlink:href="#a"/><linearGradient
        id="g"
        x1="0.0099999998"
        y1="110.5"
        x2="133.64999"
        y2="110.5"
        xlink:href="#a"/><clipPath
        id="j"><path
         class="b"
         d="m 98.41,133.11 a 2,2 0 0 1 -1,-0.24 L 28.84,93.26 a 0.93,0.93 0 0 1 0,-1.69 L 50.68,78.88 a 2,2 0 0 1 1.92,0 l 68.61,39.61 a 1,1 0 0 1 0.54,0.84 1,1 0 0 1 -0.54,0.84 l -21.84,12.7 a 1.93,1.93 0 0 1 -0.96,0.24 z"
         id="path160" /></clipPath><linearGradient
        id="k"
        x1="28.799999"
        y1="105.24"
        x2="121.26"
        y2="105.24"
        xlink:href="#d"/><linearGradient
        id="l"
        x1="120.66"
        y1="116.56"
        x2="25.83"
        y2="110.14"
        xlink:href="#d"/><linearGradient
        id="m"
        x1="130.7"
        y1="128.28999"
        x2="7.9400001"
        y2="128.28999"
        xlink:href="#a"/><linearGradient
        id="o"
        x1="100.24"
        y1="126.54"
        x2="129.56"
        y2="126.54"
        xlink:href="#d"/><linearGradient
        id="p"
        x1="24.540001"
        y1="82.830002"
        x2="53.849998"
        y2="82.830002"
        xlink:href="#d"/><linearGradient
        id="q"
        x1="23.629999"
        y1="119.83"
        x2="78"
        y2="119.83"
        xlink:href="#d"/><linearGradient
        id="r"
        x1="62.419998"
        y1="29.4"
        x2="139.53999"
        y2="73.93"
        gradientUnits="userSpaceOnUse"><stop
         offset="0"
         stop-color="#fff"
         stop-opacity="0.25"
         id="stop176" />
    <stop
            offset="1"
            stop-color="#dbf9ea"
            stop-opacity="0"
            id="stop178"/></linearGradient><linearGradient
        xlink:href="#d"
        id="linearGradient476"
        gradientUnits="userSpaceOnUse"
        x1="61.18"
        y1="31.540001"
        x2="154.3"
        y2="85.300003"/><linearGradient
        xlink:href="#a"
        id="linearGradient478"
        x1="0.0099999998"
        y1="110.5"
        x2="133.64999"
        y2="110.5"/><linearGradient
        xlink:href="#a"
        id="linearGradient480"
        gradientUnits="userSpaceOnUse"
        x1="122.56"
        y1="119.33"
        x2="23.68"
        y2="91.330002"/></defs>
    <g
            id="layer1"
            transform="translate(-71.439676,-142.77766)"><g
       id="g287"
       transform="matrix(0.26458333,0,0,0.26458333,71.439678,142.77768)"><path
         class="c"
         d="m 9.31,108.3 74.17,42.82 a 8.14,8.14 0 0 0 7.38,0 l 49,-28.49 c 2,-1.18 2,-3.09 0,-4.27 L 65.7,75.53 a 8.16,8.16 0 0 0 -7.39,0 L 9.28,104 c -2,1.18 -2,3.1 0,4.28"
         id="path185"
         style="display:inline;fill:url(#b)" /><g
            class="d"
            id="g197"><path
           class="e"
           d="m 157.2,43.34 c 2.05,1.18 3,4.27 2.09,6.9 l -21.52,63.45 c -0.89,2.63 -3.27,3.81 -5.32,2.63 L 58.28,73.49 c -2.05,-1.18 -3,-4.27 -2.09,-6.91 L 77.71,3.14 C 78.6,0.51 81,-0.66 83,0.52 Z"
           id="path187" />
        <g
                class="d"
                id="g193"><g
             class="f"
             clip-path="url(#c)"
             id="g191"><path
               class="g"
               d="M 157.2,43.34 83,0.52 c -2,-1.18 -4.43,0 -5.32,2.62 L 56.19,66.59 c -0.89,2.63 0.05,5.72 2.09,6.9 l 74.17,42.82 c 2.05,1.19 4.43,0 5.32,-2.62 l 21.52,-63.45 c 0.89,-2.62 0,-5.72 -2.09,-6.9"
               id="path189"
               style="fill:url(#linearGradient476)" /></g></g>
        <path
                class="h"
                d="M 160,43.28 85.79,0.46 A 3.34,3.34 0 0 0 84.07,0 L 81.31,0.06 A 3.25,3.25 0 0 1 83,0.52 l 74.2,42.82 c 2.05,1.18 3,4.27 2.09,6.9 l -21.52,63.45 a 4.12,4.12 0 0 1 -3.6,3.09 l 2.76,-0.06 a 4.12,4.12 0 0 0 3.61,-3.09 L 162.05,50.18 C 162.94,47.56 162,44.46 160,43.28 Z"
                id="path195"
                style="fill:url(#e)"/></g><polyline
            class="i"
            points="155.59 48.63 81.12 5.63 59.9 68.21 134.37 111.2 155.59 48.63"
            id="polyline199"
            style="display:inline;fill:#2f60fc;fill-opacity:1"/><path
            class="j"
            d="m 132.11,115.53 c 2,1.18 2.06,3.1 0,4.28 l -49,28.48 a 8.13,8.13 0 0 1 -7.39,0 L 1.55,105.47 c -2,-1.18 -2,-3.09 0,-4.28 l 49,-28.49 a 8.2,8.2 0 0 1 7.38,0 z"
            id="path201"
            style="display:inline;fill:url(#linearGradient478)"/><path
            class="a"
            d="m 132.11,115.53 c 2,1.18 2.06,3.1 0,4.28 l -49,28.48 a 8.13,8.13 0 0 1 -7.39,0 L 1.55,105.47 c -2,-1.18 -2,-3.09 0,-4.28 l 49,-28.49 a 8.2,8.2 0 0 1 7.38,0 z"
            id="path203"
            style="display:inline"/><path
            class="k"
            d="M 132.11,115.53 57.94,72.71 a 8.16,8.16 0 0 0 -7.39,0 l -49,28.49 c -2,1.18 -2,3.09 0,4.27 l 74.17,42.83 a 8.16,8.16 0 0 0 7.39,0 l 49,-28.49 c 2,-1.18 2,-3.1 0,-4.28"
            id="path205"
            style="display:inline;fill:url(#g)"/><path
            class="b"
            d="m 98.41,133.11 a 2,2 0 0 1 -1,-0.24 L 28.84,93.26 a 0.93,0.93 0 0 1 0,-1.69 L 50.68,78.88 a 2,2 0 0 1 1.92,0 l 68.61,39.61 a 1,1 0 0 1 0.54,0.84 1,1 0 0 1 -0.54,0.84 l -21.84,12.7 a 1.93,1.93 0 0 1 -0.96,0.24 z"
            id="path207"
            style="display:inline;fill:url(#linearGradient480)"/><g
            class="l"
            clip-path="url(#j)"
            id="g215"><g
           class="d"
           id="g213"><path
             class="m"
             d="m 121,118.29 a 0.43,0.43 0 0 1 0,0.82 l -21.85,12.7 a 1.58,1.58 0 0 1 -1.42,0 L 29.1,92.19 a 0.43,0.43 0 0 1 0,-0.81 L 51,78.68 a 1.53,1.53 0 0 1 1.41,0 z"
             id="path209"
             style="fill:url(#k)" /><path
            class="n"
            d="m 121,119.11 -21.85,12.7 a 1.58,1.58 0 0 1 -1.42,0 L 29.1,92.19 a 0.49,0.49 0 0 1 -0.3,-0.41 v 1.63 a 0.53,0.53 0 0 0 0.29,0.42 l 68.61,39.6 a 1.58,1.58 0 0 0 1.42,0 L 121,120.74 a 0.5,0.5 0 0 0 0.29,-0.41 v -1.63 a 0.5,0.5 0 0 1 -0.29,0.41 z"
            id="path211"
            style="fill:url(#l)"/></g></g><path
            class="o"
            d="m 132.14,119.81 -49,28.48 a 8.13,8.13 0 0 1 -7.39,0 L 1.55,105.47 A 2.6,2.6 0 0 1 0,103.32 v 4.08 a 2.62,2.62 0 0 0 1.54,2.15 l 74.18,42.82 a 8.14,8.14 0 0 0 7.38,0 l 49,-28.49 a 2.58,2.58 0 0 0 1.52,-2.12 v -4.08 a 2.61,2.61 0 0 1 -1.48,2.13 z"
            id="path217"
            style="fill:url(#m)"/><path
            class="q"
            d="m 129.26,119 -1.4,-0.8 a 1.53,1.53 0 0 0 -1.41,0 l -25.92,15.06 a 0.43,0.43 0 0 0 0,0.81 l 1.4,0.81 a 1.55,1.55 0 0 0 1.42,0 l 25.91,-15 a 0.44,0.44 0 0 0 0,-0.83"
            id="path221"
            style="fill:url(#o)"/><path
            class="r"
            d="m 53.55,75.3 -1.39,-0.81 a 1.55,1.55 0 0 0 -1.42,0 L 24.83,89.55 c -0.39,0.22 -0.39,0.59 0,0.82 l 1.39,0.8 a 1.55,1.55 0 0 0 1.42,0 l 25.91,-15 a 0.43,0.43 0 0 0 0,-0.82"
            id="path223"
            style="display:inline;fill:url(#p)"/><path
            class="s"
            d="M 77.41,123.65 44.13,104.44 a 3.1,3.1 0 0 0 -2.83,0 l -17.09,9.93 a 0.87,0.87 0 0 0 0,1.64 l 33.29,19.21 a 3.1,3.1 0 0 0 2.83,0 l 17.09,-9.93 c 0.78,-0.45 0.78,-1.18 0,-1.64"
            id="path225"
            style="display:inline;fill:url(#q)"/><path
            class="t"
            d="M 157.2,43.34 83,0.52 c -2,-1.18 -4.43,0 -5.32,2.62 L 56.19,66.59 Z"
            id="path227"
            style="fill:url(#r)"/></g></g></svg>
