<svg width="100%" height="100%" id="svg" viewBox="0 -500 1440 500" xmlns="http://www.w3.org/2000/svg" class="transition duration-300 ease-in-out delay-150"><path d="M 0,500 C 0,500 0,100 0,100 C 66.64102564102564,88.83333333333334 133.28205128205127,77.66666666666667 216,78 C 298.71794871794873,78.33333333333333 397.51282051282055,90.16666666666666 485,92 C 572.4871794871794,93.83333333333334 648.6666666666667,85.66666666666667 737,79 C 825.3333333333333,72.33333333333333 925.8205128205129,67.16666666666667 994,70 C 1062.179487179487,72.83333333333333 1098.051282051282,83.66666666666666 1167,90 C 1235.948717948718,96.33333333333334 1337.974358974359,98.16666666666667 1440,100 C 1440,100 1440,500 1440,500 Z" stroke="none" stroke-width="0" fill="#2f60fc" fill-opacity="0.265" class="transition-all duration-300 ease-in-out delay-150 path-0"></path><path d="M 0,500 C 0,500 0,200 0,200 C 96.85384615384615,204.5923076923077 193.7076923076923,209.1846153846154 263,205 C 332.2923076923077,200.8153846153846 374.0230769230769,187.85384615384615 443,183 C 511.9769230769231,178.14615384615385 608.1999999999999,181.4 711,180 C 813.8000000000001,178.6 923.1769230769232,172.54615384615383 1000,168 C 1076.8230769230768,163.45384615384617 1121.0923076923077,160.4153846153846 1189,166 C 1256.9076923076923,171.5846153846154 1348.4538461538461,185.7923076923077 1440,200 C 1440,200 1440,500 1440,500 Z" stroke="none" stroke-width="0" fill="#2f60fc" fill-opacity="0.4" class="transition-all duration-300 ease-in-out delay-150 path-1"></path><path d="M 0,500 C 0,500 0,300 0,300 C 85.70000000000002,320.64871794871794 171.40000000000003,341.29743589743583 253,332 C 334.59999999999997,322.70256410256417 412.1,283.4589743589744 496,283 C 579.9,282.5410256410256 670.1999999999998,320.8666666666667 736,327 C 801.8000000000002,333.1333333333333 843.1000000000001,307.074358974359 930,305 C 1016.8999999999999,302.925641025641 1149.4,324.83589743589744 1242,328 C 1334.6,331.16410256410256 1387.3,315.5820512820513 1440,300 C 1440,300 1440,500 1440,500 Z" stroke="none" stroke-width="0" fill="#2f60fc" fill-opacity="0.53" class="transition-all duration-300 ease-in-out delay-150 path-2"></path><path d="M 0,500 C 0,500 0,400 0,400 C 94.73333333333332,412.42051282051284 189.46666666666664,424.8410256410256 255,424 C 320.53333333333336,423.1589743589744 356.8666666666667,409.0564102564103 445,401 C 533.1333333333333,392.9435897435897 673.0666666666665,390.93333333333334 760,389 C 846.9333333333335,387.06666666666666 880.8666666666668,385.2102564102564 957,388 C 1033.1333333333332,390.7897435897436 1151.4666666666667,398.225641025641 1239,401 C 1326.5333333333333,403.774358974359 1383.2666666666667,401.88717948717954 1440,400 C 1440,400 1440,500 1440,500 Z" stroke="none" stroke-width="0" fill="#2f60fc" fill-opacity="1" class="transition-all duration-300 ease-in-out delay-150 path-3"></path></svg>
