<?xml version="1.0" encoding="utf-8"?>
<svg viewBox="-409.08 225.839 1440 192" xmlns="http://www.w3.org/2000/svg">
  <path fill="#2f60fc" fill-opacity="1" d="M0,192L48,181.3C96,171,192,149,288,165.3C384,181,480,235,576,240C672,245,768,203,864,186.7C960,171,1056,181,1152,176C1248,171,1344,149,1392,138.7L1440,128L1440,320L1392,320C1344,320,1248,320,1152,320C1056,320,960,320,864,320C768,320,672,320,576,320C480,320,384,320,288,320C192,320,96,320,48,320L0,320Z" transform="matrix(1, 0, 0, 1, -409.080444, 97.839073)"/>
</svg>